<svg width="1024" height="1024" viewBox="0 0 1024 1024" fill="none" xmlns="http://www.w3.org/2000/svg">
<g filter="url(#filter0_d_1_58)">
<path fill-rule="evenodd" clip-rule="evenodd" d="M928 355.119C928 345.242 928.004 335.364 927.943 325.486C927.894 317.165 927.798 308.846 927.572 300.529C927.083 282.402 926.014 264.119 922.79 246.194C919.52 228.01 914.181 211.086 905.767 194.564C897.496 178.325 886.691 163.465 873.799 150.583C860.91 137.7 846.046 126.902 829.801 118.636C813.263 110.22 796.321 104.882 778.117 101.614C760.19 98.395 741.902 97.3278 723.775 96.8381C715.452 96.6129 707.129 96.518 698.804 96.4665C688.921 96.4059 679.038 96.4109 669.155 96.4109L554.404 96H468.58L355.86 96.4109C345.958 96.4109 336.055 96.4059 326.153 96.4665C317.811 96.518 309.473 96.6129 301.134 96.8381C282.964 97.3278 264.635 98.396 246.666 101.619C228.437 104.886 211.47 110.222 194.909 118.632C178.63 126.899 163.734 137.698 150.818 150.583C137.904 163.464 127.079 178.321 118.792 194.557C110.355 211.087 105.006 228.021 101.728 246.215C98.501 264.133 97.4318 282.41 96.94 300.529C96.7159 308.847 96.6189 317.166 96.5685 325.486C96.5079 335.365 96 347.636 96 357.514L96.003 468.672L96 555.416L96.5129 668.936C96.5129 678.827 96.5089 688.718 96.5685 698.609C96.6189 706.941 96.7159 715.271 96.941 723.6C97.4318 741.751 98.503 760.06 101.733 778.009C105.01 796.217 110.358 813.165 118.788 829.708C127.076 845.971 137.903 860.85 150.818 873.751C163.733 886.652 178.625 897.464 194.901 905.742C211.472 914.169 228.448 919.513 246.687 922.786C264.648 926.01 282.971 927.079 301.134 927.569C309.473 927.794 317.812 927.89 326.154 927.94C336.056 928.001 345.958 927.997 355.86 927.997L469.599 928H555.636L669.155 927.996C679.038 927.996 688.921 928.001 698.804 927.94C707.129 927.89 715.452 927.794 723.775 927.569C741.909 927.078 760.203 926.008 778.138 922.782C796.331 919.509 813.264 914.167 829.794 905.745C846.042 897.468 860.909 886.654 873.799 873.751C886.689 860.852 897.493 845.975 905.764 829.715C914.183 813.164 919.522 796.208 922.794 777.988C926.015 760.046 927.083 741.744 927.573 723.6C927.798 715.27 927.894 706.94 927.943 698.609C928.005 688.718 928 678.827 928 668.936C928 668.936 927.994 557.42 927.994 555.416V468.581C927.994 467.101 928 355.119 928 355.119Z" fill="#F2F2F2"/>
</g>
<mask id="mask0_1_58" style="mask-type:luminance" maskUnits="userSpaceOnUse" x="95" y="96" width="833" height="832">
<path fill-rule="evenodd" clip-rule="evenodd" d="M927.656 355.119C927.656 345.242 927.66 335.364 927.6 325.486C927.55 317.165 927.454 308.846 927.228 300.529C926.739 282.402 925.67 264.119 922.446 246.194C919.177 228.01 913.837 211.086 905.424 194.564C897.152 178.325 886.347 163.465 873.455 150.583C860.567 137.7 845.703 126.902 829.458 118.636C812.919 110.22 795.977 104.882 777.773 101.614C759.846 98.395 741.558 97.3278 723.431 96.8381C715.108 96.6129 706.785 96.518 698.46 96.4665C688.577 96.4059 678.694 96.4109 668.811 96.4109L554.061 96H468.236L355.516 96.4109C345.614 96.4109 335.712 96.4059 325.81 96.4665C317.467 96.518 309.129 96.6129 300.79 96.8381C282.621 97.3278 264.292 98.396 246.322 101.619C228.094 104.886 211.127 110.222 194.566 118.632C178.286 126.899 163.39 137.698 150.474 150.583C137.56 163.464 126.735 178.321 118.448 194.557C110.011 211.087 104.662 228.021 101.384 246.215C98.1573 264.133 97.088 282.41 96.5963 300.529C96.3721 308.847 96.2752 317.166 96.2247 325.486C96.1641 335.365 95.6562 347.636 95.6562 357.514L95.6593 468.672L95.6562 555.416L96.1692 668.936C96.1692 678.827 96.1651 688.718 96.2247 698.609C96.2752 706.941 96.3721 715.271 96.5973 723.6C97.088 741.751 98.1593 760.06 101.389 778.009C104.666 796.217 110.014 813.165 118.444 829.708C126.732 845.971 137.559 860.85 150.474 873.751C163.389 886.652 178.281 897.464 194.557 905.742C211.129 914.169 228.104 919.513 246.343 922.786C264.305 926.01 282.628 927.079 300.79 927.569C309.129 927.794 317.468 927.89 325.811 927.94C335.713 928.001 345.614 927.997 355.516 927.997L469.255 928H555.292L668.811 927.996C678.694 927.996 688.577 928.001 698.46 927.94C706.785 927.89 715.108 927.794 723.431 927.569C741.565 927.078 759.859 926.008 777.794 922.782C795.987 919.509 812.921 914.167 829.451 905.745C845.699 897.468 860.566 886.654 873.455 873.751C886.345 860.852 897.149 845.975 905.421 829.715C913.839 813.164 919.179 796.208 922.45 777.988C925.671 760.046 926.739 741.744 927.229 723.6C927.454 715.27 927.55 706.94 927.6 698.609C927.661 688.718 927.656 678.827 927.656 668.936C927.656 668.936 927.65 557.42 927.65 555.416V468.581C927.65 467.101 927.656 355.119 927.656 355.119Z" fill="white"/>
</mask>
<g mask="url(#mask0_1_58)">
<rect width="832" height="832" transform="translate(96 95.7632)" fill="#989898"/>
<rect width="832" height="832" transform="translate(96 95.7632)" fill="url(#paint0_linear_1_58)"/>
<rect width="832" height="832" transform="translate(96 95.7632)" fill="url(#paint1_radial_1_58)"/>
<mask id="mask1_1_58" style="mask-type:alpha" maskUnits="userSpaceOnUse" x="181" y="158" width="661" height="695">
<path d="M841.5 505.5C841.5 697.167 693.731 852.5 511.5 852.5C329.269 852.5 181.5 697.167 181.5 505.5C181.5 313.833 329.269 158.5 511.5 158.5C693.731 158.5 841.5 313.833 841.5 505.5Z" fill="#C4C4C4" stroke="black"/>
</mask>
<g mask="url(#mask1_1_58)">
<ellipse cx="276.225" cy="286.369" rx="276.225" ry="286.369" transform="matrix(0.920394 -0.390991 0.358691 0.933456 -2.68408 -63.0244)" fill="#5D0E41"/>
<ellipse cx="276.225" cy="286.369" rx="276.225" ry="286.369" transform="matrix(0.920394 -0.390991 0.358691 0.933456 311.809 755.39)" fill="#5D0E41"/>
<ellipse cx="276.225" cy="286.369" rx="276.225" ry="286.369" transform="matrix(0.920394 -0.390991 0.358691 0.933456 -234.626 511.518)" fill="#FF204E"/>
<ellipse cx="276.225" cy="286.369" rx="276.225" ry="286.369" transform="matrix(0.920394 -0.390991 0.358691 0.933456 536.538 162.113)" fill="#FF204E"/>
</g>
</g>
<defs>
<filter id="filter0_d_1_58" x="74" y="84" width="876" height="876" filterUnits="userSpaceOnUse" color-interpolation-filters="sRGB">
<feFlood flood-opacity="0" result="BackgroundImageFix"/>
<feColorMatrix in="SourceAlpha" type="matrix" values="0 0 0 0 0 0 0 0 0 0 0 0 0 0 0 0 0 0 127 0" result="hardAlpha"/>
<feOffset dy="10"/>
<feGaussianBlur stdDeviation="11"/>
<feColorMatrix type="matrix" values="0 0 0 0 0 0 0 0 0 0 0 0 0 0 0 0 0 0 0.3 0"/>
<feBlend mode="normal" in2="BackgroundImageFix" result="effect1_dropShadow_1_58"/>
<feBlend mode="normal" in="SourceGraphic" in2="effect1_dropShadow_1_58" result="shape"/>
</filter>
<linearGradient id="paint0_linear_1_58" x1="416" y1="28.7868" x2="416" y2="756.904" gradientUnits="userSpaceOnUse">
<stop stop-color="white" stop-opacity="0.88"/>
<stop offset="1" stop-color="white" stop-opacity="0"/>
</linearGradient>
<radialGradient id="paint1_radial_1_58" cx="0" cy="0" r="1" gradientUnits="userSpaceOnUse" gradientTransform="translate(416 43.9389) rotate(90) scale(661.643 1075.08)">
<stop stop-color="white" stop-opacity="0.95"/>
<stop offset="1" stop-color="white" stop-opacity="0.88"/>
</radialGradient>
</defs>
</svg>
