<svg width="400" height="400" viewBox="0 0 400 400" fill="none" xmlns="http://www.w3.org/2000/svg">
<rect opacity="0.8" width="400" height="400" fill="url(#paint0_linear_5_238)"/>
<g filter="url(#filter0_d_5_238)">
<path d="M88.6387 294.598L70 329.536L70.466 139.179C70.466 100.933 101.453 70 139.895 70H330.476C276.307 86.7723 219.867 124.67 182.589 167.848C141.468 215.089 118.111 247.589 88.6387 294.598ZM330.942 70C330.942 70 247.767 108.768 222.371 166.978C208.858 198.085 205.538 235.518 181.017 259.022C164.184 275.156 140.361 281.192 119.684 291.696C106.171 298.661 81.0085 315.201 70.233 330H261.513C299.955 330 331 299.067 331 260.821C330.942 260.821 330.942 70 330.942 70Z" fill="white"/>
</g>
<defs>
<filter id="filter0_d_5_238" x="66" y="70" width="269" height="268" filterUnits="userSpaceOnUse" color-interpolation-filters="sRGB">
<feFlood flood-opacity="0" result="BackgroundImageFix"/>
<feColorMatrix in="SourceAlpha" type="matrix" values="0 0 0 0 0 0 0 0 0 0 0 0 0 0 0 0 0 0 127 0" result="hardAlpha"/>
<feOffset dy="4"/>
<feGaussianBlur stdDeviation="2"/>
<feComposite in2="hardAlpha" operator="out"/>
<feColorMatrix type="matrix" values="0 0 0 0 0 0 0 0 0 0 0 0 0 0 0 0 0 0 0.25 0"/>
<feBlend mode="normal" in2="BackgroundImageFix" result="effect1_dropShadow_5_238"/>
<feBlend mode="normal" in="SourceGraphic" in2="effect1_dropShadow_5_238" result="shape"/>
</filter>
<linearGradient id="paint0_linear_5_238" x1="-129.204" y1="129.204" x2="129.204" y2="529.204" gradientUnits="userSpaceOnUse">
<stop stop-color="#00CFDE"/>
<stop offset="1" stop-color="#05A660"/>
</linearGradient>
</defs>
</svg>
