<?xml version="1.0" encoding="utf-8"?>
<!-- Generator: Adobe Illustrator 27.9.3, SVG Export Plug-In . SVG Version: 9.03 Build 53313)  -->
<svg version="1.1" id="Layer_1" xmlns="http://www.w3.org/2000/svg" xmlns:xlink="http://www.w3.org/1999/xlink" x="0px" y="0px"
	 viewBox="0 0 1200 1600" style="enable-background:new 0 0 1200 1600;" xml:space="preserve">
<style type="text/css">
	.st0{fill:#636466;}
	.st1{fill:#0072BC;}
</style>
<g>
	<path class="st0" d="M494.1,782h27.2c18.7,0,33.6,15.2,33.6,33.8c0,18.5-15,33.6-33.6,33.6h-27.2L494.1,782L494.1,782z
		 M521.5,838.6c12.7,0,22.6-10.3,22.6-22.7c0-12.6-9.9-22.8-22.6-22.8h-16.4v45.6L521.5,838.6L521.5,838.6z"/>
	<path class="st0" d="M564.4,782h29.8c14.6,0,26.7,11.3,26.7,25.4c0,9.6-5.7,17.7-13.7,22.1l13.9,20h-13.5L596,832.6
		c-0.4,0.1-1,0.1-1.4,0.1h-19.1v16.8h-11V782H564.4z M594.2,822.1c8.7,0,15.7-6.6,15.7-14.7c0-8.1-7.2-14.7-15.9-14.7h-18.7v29.4
		H594.2z"/>
	<path class="st0" d="M664.2,779.8c20,0,36.1,16.2,36.1,35.9c0,20-16.1,36.1-36.1,36.1c-19.8,0-35.9-16.1-35.9-36.1
		C628.3,796,644.4,779.8,664.2,779.8z M664.2,790.7c-13.6,0-24.9,11.3-24.9,24.9c0,13.9,11.3,25.1,24.9,25.1
		c13.9,0,25.1-11.2,25.1-25.1C689.3,802,678.1,790.7,664.2,790.7z"/>
	<path class="st0" d="M758.1,810.3H779c0.3,1.7,0.4,3.7,0.4,5.4c0,20-16.2,36.1-36.1,36.1c-19.8,0-35.9-16.1-35.9-36.1
		c0-19.7,16.1-35.9,35.9-35.9c9.5,0,18,3.6,24.4,9.6l-7.3,8.1c-4.5-4.1-10.5-6.6-17.1-6.6c-13.6,0-24.9,11.3-24.9,24.9
		c0,13.9,11.3,25.1,24.9,25.1c12.1,0,22.1-8.4,24.5-19.6h-9.7L758.1,810.3L758.1,810.3z"/>
	<path class="st0" d="M788.3,782h11v39.5c0,10.6,8.3,19.3,18.6,19.3s18.6-8.7,18.6-19.3V782h11v39.5c0,16.9-13.3,30.2-29.5,30.2
		s-29.5-13.4-29.5-30.2V782H788.3z"/>
	<path class="st0" d="M859.8,782H912v11h-41.2v17.1h30V821h-30v17.5H912v10.9h-52.2V782z"/>
	<path class="st0" d="M923,782h29.8c14.6,0,26.7,11.3,26.7,25.4c0,9.6-5.7,17.7-13.7,22.1l13.9,20h-13.5l-11.6-16.9
		c-0.4,0.1-1,0.1-1.4,0.1H934v16.8h-11V782z M952.8,822.1c8.7,0,15.7-6.6,15.7-14.7c0-8.1-7.2-14.7-15.9-14.7H934v29.4H952.8z"/>
	<path class="st0" d="M1037.6,782h10.8l29.2,67.4h-11.9l-4-9.3h-37.2l-4.1,9.3h-11.9L1037.6,782z M1057,829.4l-14-32.9l-14,32.9
		H1057z"/>
	<path class="st0" d="M548,911.2h23.3c0.3,1.9,0.4,4.1,0.4,6c0,22.3-18.1,40.3-40.3,40.3c-22.1,0-40.1-18-40.1-40.3
		c0-22,18-40.1,40.1-40.1c10.6,0,20.1,4,27.3,10.7l-8.1,9c-5.1-4.6-11.7-7.4-19.1-7.4c-15.2,0-27.8,12.6-27.8,27.8
		c0,15.6,12.6,28,27.8,28c13.5,0,24.7-9.4,27.4-21.9H548V911.2z"/>
	<path class="st0" d="M626.6,879.7h12.1l32.6,75.3H658l-4.4-10.4H612l-4.5,10.4H594L626.6,879.7z M648.3,932.6l-15.7-36.7L617,932.6
		H648.3z"/>
	<path class="st0" d="M700.5,879.7h33.3c16.3,0,29.8,12.6,29.8,28.4c0,10.7-6.3,19.8-15.3,24.7l15.6,22.3h-15.1l-13-18.8
		c-0.4,0.1-1.2,0.1-1.6,0.1h-21.4V955h-12.3V879.7z M733.8,924.4c9.7,0,17.6-7.4,17.6-16.4s-8-16.4-17.8-16.4h-20.8v32.8
		L733.8,924.4L733.8,924.4z"/>
	<path class="st0" d="M795.7,940.8l47.1-48.8h-47.1v-12.4H858v14.3l-47.1,48.9H858V955h-62.3V940.8z"/>
	<path class="st0" d="M1000.6,879.7h14.7l40.7,57.9v-57.9h12.3V955h-14.6l-40.8-57.9V955h-12.3L1000.6,879.7L1000.6,879.7z"/>
	<path class="st0" d="M947.4,881.8l-12.1,6.4l-6.3-11.1c-0.2,0-0.3,0-0.5,0c-22.1,0-40.1,18.1-40.1,40.1c0,22.3,18,40.3,40.1,40.3
		c22.3,0,40.3-18,40.3-40.3C968.9,901.9,960.2,888.5,947.4,881.8z M928.6,945.3c-15.2,0-27.8-12.5-27.8-28
		c0-15.2,12.6-27.8,27.8-27.8c15.6,0,28,12.6,28,27.8C956.6,932.8,944.1,945.3,928.6,945.3z"/>
	<polygon class="st0" points="936.9,883.2 932.6,875.5 951.2,864.1 956.2,872.9 	"/>
	<polygon class="st0" points="990.1,787.9 990.1,849.5 1001.1,849.5 1001.1,782 1001.1,782 	"/>
	<polygon class="st0" points="990.8,783 986.4,775.3 1005,763.9 1010.1,772.7 	"/>
	<path class="st1" d="M410.6,875.2v43.3h-38.2c-27.5,0-48.9-23-48.9-50.7c0-28.2,21.5-51.2,48.9-51.2h38.2l0,0H449v-38h-75.1
		c-49.2,0-88.6,39.9-88.6,89.1c0,48.7,39.4,88.6,88.6,88.6H449v-81.2h-38.4V875.2z"/>
	<path class="st1" d="M196.7,778.7h-75.1v38H160l0,0h38.2c27.5,0,48.9,23,48.9,51.2c0,27.7-21.5,50.7-48.9,50.7H160v-43.2h-38.4
		v81.1h75.1c49.2,0,88.6-39.9,88.6-88.6C285.3,818.7,245.9,778.7,196.7,778.7z"/>
</g>
</svg>
