<svg width="734" height="258" viewBox="0 0 734 258" fill="none" xmlns="http://www.w3.org/2000/svg">
<g filter="url(#filter0_d_39_33)">
<path d="M337.003 76.235C337.183 75.785 337.498 75.425 337.948 75.155C338.398 74.795 338.848 74.615 339.298 74.615H351.043L315.943 174.245C315.853 174.695 315.538 175.1 314.998 175.46C314.548 175.82 314.098 176 313.648 176H302.983C302.533 176 302.038 175.82 301.498 175.46C301.048 175.1 300.778 174.695 300.688 174.245L265.588 74.615H277.333C277.783 74.615 278.233 74.795 278.683 75.155C279.133 75.425 279.448 75.785 279.628 76.235L308.383 158.855L337.003 76.235ZM383.59 86.225C380.8 86.225 378.37 87.215 376.3 89.195C374.32 91.175 373.33 93.605 373.33 96.485V122.135C374.05 121.325 374.995 120.695 376.165 120.245C377.335 119.705 378.595 119.435 379.945 119.435H424.36V129.29C424.36 129.74 424.18 130.145 423.82 130.505C423.46 130.865 423.055 131.045 422.605 131.045H373.33V154.13C373.33 156.92 374.32 159.35 376.3 161.42C378.37 163.4 380.8 164.39 383.59 164.39H427.33C427.78 164.39 428.185 164.57 428.545 164.93C428.905 165.29 429.085 165.695 429.085 166.145V176H383.59C379.45 176 375.625 174.965 372.115 172.895C368.605 170.825 365.815 168.035 363.745 164.525C361.675 161.015 360.64 157.19 360.64 153.05V97.565C360.64 93.425 361.675 89.6 363.745 86.09C365.815 82.58 368.605 79.79 372.115 77.72C375.625 75.65 379.45 74.615 383.59 74.615H429.085V84.47C429.085 84.92 428.905 85.325 428.545 85.685C428.185 86.045 427.78 86.225 427.33 86.225H383.59ZM510.035 74.615V84.47C510.035 84.92 509.855 85.325 509.495 85.685C509.135 86.045 508.73 86.225 508.28 86.225H464.54C461.75 86.225 459.32 87.215 457.25 89.195C455.27 91.175 454.28 93.605 454.28 96.485V122.405C455 121.505 455.945 120.785 457.115 120.245C458.375 119.705 459.68 119.435 461.03 119.435H506.93V129.29C506.93 129.74 506.75 130.145 506.39 130.505C506.03 130.865 505.625 131.045 505.175 131.045H454.28V174.245C454.28 174.695 454.1 175.1 453.74 175.46C453.38 175.82 452.975 176 452.525 176H441.59V97.565C441.59 93.425 442.625 89.6 444.695 86.09C446.765 82.58 449.555 79.79 453.065 77.72C456.575 75.65 460.4 74.615 464.54 74.615H510.035ZM525.938 176C525.488 176 525.083 175.82 524.723 175.46C524.363 175.1 524.183 174.695 524.183 174.245V74.615H535.118C535.568 74.615 535.973 74.795 536.333 75.155C536.693 75.515 536.873 75.92 536.873 76.37V176H525.938ZM604.775 128.075C606.395 128.885 607.7 130.145 608.69 131.855L629.885 176H617.6C617.15 176 616.655 175.865 616.115 175.595C615.575 175.235 615.215 174.83 615.035 174.38L597.62 137.795C597.17 137.075 596.585 136.4 595.865 135.77C595.235 135.05 594.605 134.69 593.975 134.69H588.98C588.26 134.69 587.54 135.05 586.82 135.77C586.19 136.4 585.695 137.075 585.335 137.795L567.92 174.38C567.65 174.83 567.245 175.235 566.705 175.595C566.255 175.865 565.805 176 565.355 176H552.935L573.995 132.26C574.985 130.46 576.38 129.065 578.18 128.075C576.47 127.265 575.12 125.96 574.13 124.16L550.235 74.615H562.385C562.925 74.615 563.42 74.795 563.87 75.155C564.41 75.425 564.77 75.785 564.95 76.235L585.335 118.22C585.695 119.03 586.235 119.84 586.955 120.65C587.675 121.46 588.35 121.865 588.98 121.865H593.975C594.605 121.865 595.235 121.505 595.865 120.785C596.585 119.975 597.17 119.12 597.62 118.22L617.87 76.235C618.05 75.785 618.365 75.425 618.815 75.155C619.355 74.795 619.85 74.615 620.3 74.615H632.45L608.42 124.97C607.43 126.41 606.215 127.445 604.775 128.075ZM722.187 74.615L701.532 127.13C700.722 129.38 699.462 131.225 697.752 132.665C696.042 134.105 693.972 134.825 691.542 134.825H685.467V174.245C685.467 174.695 685.287 175.1 684.927 175.46C684.567 175.82 684.162 176 683.712 176H672.642V134.825L667.242 134.69C664.542 134.69 662.292 134.015 660.492 132.665C658.692 131.225 657.387 129.38 656.577 127.13L635.922 74.615H647.802C648.252 74.615 648.702 74.795 649.152 75.155C649.692 75.425 650.052 75.785 650.232 76.235L667.107 120.38C667.377 121.01 667.827 121.595 668.457 122.135C669.177 122.585 669.897 122.81 670.617 122.81H687.492C688.212 122.81 688.887 122.585 689.517 122.135C690.237 121.595 690.732 121.01 691.002 120.38L707.877 76.235C708.057 75.785 708.372 75.425 708.822 75.155C709.362 74.795 709.857 74.615 710.307 74.615H722.187Z" fill="white"/>
</g>
<g filter="url(#filter1_d_39_33)">
<path d="M21.8532 215.96L4 249.554L4.44633 66.5179C4.44633 29.7433 34.1272 0 70.9493 0H253.498C201.612 16.1272 147.551 52.567 111.844 94.0848C72.4557 139.509 50.0835 170.759 21.8532 215.96ZM253.944 0C253.944 0 174.274 37.2768 149.95 93.2478C137.006 123.158 133.826 159.152 110.338 181.752C94.2142 197.266 71.3957 203.069 51.5898 213.17C38.6463 219.866 14.5445 235.77 4.22316 250H187.441C224.263 250 254 220.257 254 183.482C253.944 183.482 253.944 0 253.944 0Z" fill="url(#paint0_linear_39_33)"/>
</g>
<defs>
<filter id="filter0_d_39_33" x="261.588" y="74.615" width="464.599" height="109.385" filterUnits="userSpaceOnUse" color-interpolation-filters="sRGB">
<feFlood flood-opacity="0" result="BackgroundImageFix"/>
<feColorMatrix in="SourceAlpha" type="matrix" values="0 0 0 0 0 0 0 0 0 0 0 0 0 0 0 0 0 0 127 0" result="hardAlpha"/>
<feOffset dy="4"/>
<feGaussianBlur stdDeviation="2"/>
<feComposite in2="hardAlpha" operator="out"/>
<feColorMatrix type="matrix" values="0 0 0 0 0 0 0 0 0 0 0 0 0 0 0 0 0 0 0.25 0"/>
<feBlend mode="normal" in2="BackgroundImageFix" result="effect1_dropShadow_39_33"/>
<feBlend mode="normal" in="SourceGraphic" in2="effect1_dropShadow_39_33" result="shape"/>
</filter>
<filter id="filter1_d_39_33" x="0" y="0" width="258" height="258" filterUnits="userSpaceOnUse" color-interpolation-filters="sRGB">
<feFlood flood-opacity="0" result="BackgroundImageFix"/>
<feColorMatrix in="SourceAlpha" type="matrix" values="0 0 0 0 0 0 0 0 0 0 0 0 0 0 0 0 0 0 127 0" result="hardAlpha"/>
<feOffset dy="4"/>
<feGaussianBlur stdDeviation="2"/>
<feComposite in2="hardAlpha" operator="out"/>
<feColorMatrix type="matrix" values="0 0 0 0 0 0 0 0 0 0 0 0 0 0 0 0 0 0 0.25 0"/>
<feBlend mode="normal" in2="BackgroundImageFix" result="effect1_dropShadow_39_33"/>
<feBlend mode="normal" in="SourceGraphic" in2="effect1_dropShadow_39_33" result="shape"/>
</filter>
<linearGradient id="paint0_linear_39_33" x1="129" y1="250" x2="129" y2="0" gradientUnits="userSpaceOnUse">
<stop offset="0.105" stop-color="#08947C"/>
<stop offset="0.275" stop-color="#14C6A3"/>
<stop offset="0.825" stop-color="#08947C"/>
</linearGradient>
</defs>
</svg>
